<?xml version="1.0" encoding="UTF-8" standalone="no"?>
<!-- Generator: Adobe Illustrator 17.1.0, SVG Export Plug-In . SVG Version: 6.00 Build 0)  -->

<svg
   xmlns:dc="http://purl.org/dc/elements/1.1/"
   xmlns:cc="http://creativecommons.org/ns#"
   xmlns:rdf="http://www.w3.org/1999/02/22-rdf-syntax-ns#"
   xmlns:svg="http://www.w3.org/2000/svg"
   xmlns="http://www.w3.org/2000/svg"
   xmlns:sodipodi="http://sodipodi.sourceforge.net/DTD/sodipodi-0.dtd"
   xmlns:inkscape="http://www.inkscape.org/namespaces/inkscape"
   version="1.1"
   id="Layer_1"
   x="0px"
   y="0px"
   width="20px"
   height="20px"
   viewBox="0 0 20 20"
   enable-background="new 0 0 20 20"
   xml:space="preserve"
   inkscape:version="0.91 r13725"
   sodipodi:docname="cd-icon-email.svg"><metadata
     id="metadata11"><rdf:RDF><cc:Work
         rdf:about=""><dc:format>image/svg+xml</dc:format><dc:type
           rdf:resource="http://purl.org/dc/dcmitype/StillImage" /></cc:Work></rdf:RDF></metadata><defs
     id="defs9" /><sodipodi:namedview
     pagecolor="#ffffff"
     bordercolor="#666666"
     borderopacity="1"
     objecttolerance="10"
     gridtolerance="10"
     guidetolerance="10"
     inkscape:pageopacity="0"
     inkscape:pageshadow="2"
     inkscape:window-width="1366"
     inkscape:window-height="705"
     id="namedview7"
     showgrid="false"
     inkscape:zoom="11.8"
     inkscape:cx="10"
     inkscape:cy="10"
     inkscape:window-x="-8"
     inkscape:window-y="-8"
     inkscape:window-maximized="1"
     inkscape:current-layer="Layer_1" /><path
     fill="none"
     stroke="#D2D8D8"
     stroke-width="2"
     stroke-linecap="round"
     stroke-linejoin="round"
     stroke-miterlimit="10"
     d="  M16,18H4c-1.1,0-2-0.9-2-2V4c0-1.1,0.9-2,2-2h12c1.1,0,2,0.9,2,2v12C18,17.1,17.1,18,16,18z"
     id="path3" /><polyline
     fill="none"
     stroke="#D2D8D8"
     stroke-linecap="round"
     stroke-linejoin="round"
     stroke-miterlimit="10"
     points="2,6 10,10   18,6 "
     id="polyline5" /><path
     style="fill:#ffffff"
     d="M 3.2372881,18.866937 C 2.6233722,18.702981 1.9197442,18.209679 1.569338,17.697564 1.0132251,16.884811 1.0273889,17.101542 1.0530624,9.7976271 L 1.0762712,3.1949153 1.3149099,2.7288136 C 1.6276993,2.1178831 2.1228853,1.6195341 2.7156146,1.3191621 L 3.1949153,1.0762712 9.7976271,1.0530624 c 7.3039149,-0.025673 7.0871839,-0.039837 7.8999369,0.5162756 0.226933,0.1552753 0.554873,0.4892129 0.728755,0.7420836 0.589984,0.8579877 0.581616,0.7384442 0.555054,7.9294414 l -0.02375,6.428629 -0.237246,0.508474 c -0.308833,0.6619 -0.885073,1.240881 -1.53306,1.540347 l -0.517829,0.239314 -6.483051,0.0169 c -5.4722122,0.01426 -6.5557258,-0.0025 -6.9491529,-0.107585 z M 16.528953,16.867936 c 0.499669,-0.353862 0.477392,-0.124781 0.503469,-5.177258 0.01317,-2.5519068 0.0035,-4.6398305 -0.0216,-4.6398305 -0.02505,0 -1.5706,0.7627118 -3.434552,1.6949152 -1.863952,0.9322034 -3.465646,1.6949153 -3.559322,1.6949153 -0.093675,0 -1.6953698,-0.7627119 -3.5593219,-1.6949153 -1.863952,-0.9322034 -3.4082575,-1.6949152 -3.43179,-1.6949152 -0.023532,0 -0.042644,2.0688559 -0.04247,4.5974575 3.051e-4,4.460131 0.00542,4.605828 0.1711606,4.877674 0.3291389,0.539852 0.087602,0.522415 6.9471668,0.501494 5.645696,-0.01722 6.247391,-0.03215 6.427258,-0.159537 z m -2.952278,-9.1816971 3.474172,-1.73749 0,-1.0194692 c 0,-1.1760078 -0.10051,-1.5160278 -0.524561,-1.7745649 C 16.251574,2.9872272 16.115213,2.9836779 9.9434195,2.9833676 l -6.3023427,-3.168e-4 -0.329013,0.329013 -0.329013,0.329013 0,1.1538328 0,1.1538328 3.4533899,1.7328768 c 1.8993644,0.9530823 3.5012407,1.7349543 3.5597254,1.7374933 0.058485,0.00254 1.6697139,-0.7772542 3.5805089,-1.7328736 z"
     id="path3339"
     inkscape:connector-curvature="0" /></svg>