<?xml version="1.0" encoding="UTF-8" standalone="no"?>
<!-- Generator: Adobe Illustrator 17.1.0, SVG Export Plug-In . SVG Version: 6.00 Build 0)  -->

<svg
   xmlns:dc="http://purl.org/dc/elements/1.1/"
   xmlns:cc="http://creativecommons.org/ns#"
   xmlns:rdf="http://www.w3.org/1999/02/22-rdf-syntax-ns#"
   xmlns:svg="http://www.w3.org/2000/svg"
   xmlns="http://www.w3.org/2000/svg"
   xmlns:sodipodi="http://sodipodi.sourceforge.net/DTD/sodipodi-0.dtd"
   xmlns:inkscape="http://www.inkscape.org/namespaces/inkscape"
   version="1.1"
   id="Layer_1"
   x="0px"
   y="0px"
   width="20px"
   height="20px"
   viewBox="0 0 20 20"
   enable-background="new 0 0 20 20"
   xml:space="preserve"
   inkscape:version="0.91 r13725"
   sodipodi:docname="cd-icon-password.svg"><metadata
     id="metadata11"><rdf:RDF><cc:Work
         rdf:about=""><dc:format>image/svg+xml</dc:format><dc:type
           rdf:resource="http://purl.org/dc/dcmitype/StillImage" /></cc:Work></rdf:RDF></metadata><defs
     id="defs9" /><sodipodi:namedview
     pagecolor="#ffffff"
     bordercolor="#666666"
     borderopacity="1"
     objecttolerance="10"
     gridtolerance="10"
     guidetolerance="10"
     inkscape:pageopacity="0"
     inkscape:pageshadow="2"
     inkscape:window-width="1366"
     inkscape:window-height="705"
     id="namedview7"
     showgrid="false"
     inkscape:zoom="11.8"
     inkscape:cx="10"
     inkscape:cy="13.389831"
     inkscape:window-x="-8"
     inkscape:window-y="-8"
     inkscape:window-maximized="1"
     inkscape:current-layer="Layer_1" /><path
     fill="none"
     stroke="#D2D8D8"
     stroke-width="2"
     stroke-linecap="round"
     stroke-linejoin="round"
     stroke-miterlimit="10"
     d="  M18.3,1.7h-2.8L8.8,8.4C8.3,8.1,7.6,8,7,8c-2.8,0-5,2.2-5,5s2.2,5,5,5s5-2.2,5-5c0-0.6-0.1-1.3-0.4-1.8l6.7-6.7V1.7z"
     id="path3" /><circle
     fill="none"
     stroke="#D2D8D8"
     stroke-linecap="round"
     stroke-linejoin="round"
     stroke-miterlimit="10"
     cx="7"
     cy="13"
     r="1"
     id="circle5" /><path
     style="fill:#ffffff"
     d="M 6.1186441,18.915349 C 4.784305,18.70108 3.7431324,18.164373 2.7627025,17.185418 1.5484668,15.973008 0.9570981,14.399043 1.0576146,12.64722 1.1461338,11.10449 1.7134609,9.8456695 2.8209036,8.7347253 3.9192635,7.6328927 5.347507,7.0555831 6.9831169,7.052319 7.3886616,7.0515054 7.9181204,7.0932357 8.159692,7.1450435 l 0.4392211,0.094196 3.1878319,-3.1834775 c 1.753307,-1.7509125 3.295186,-3.22338548 3.426399,-3.27216209 0.132509,-0.0492589 0.896634,-0.0886848 1.718824,-0.0886848 2.34797,0 2.322269,-0.0269433 2.322269,2.43456225 0,1.4132694 -0.02202,1.7135627 -0.138554,1.8898017 -0.07621,0.1152439 -1.529654,1.605972 -3.229887,3.3127292 l -3.091332,3.1031946 0.105492,0.625434 c 0.214252,1.27023 -0.0549,2.737579 -0.723617,3.945011 -0.485633,0.876854 -1.511071,1.850978 -2.4136271,2.292849 -0.3961865,0.193964 -0.9517372,0.411326 -1.2345572,0.483028 -0.6556775,0.166229 -1.8088594,0.230278 -2.4095106,0.133824 z m 1.5254237,-1.953625 c 1.601526,-0.255396 2.8878682,-1.474012 3.2697252,-3.097574 0.17069,-0.725733 0.117604,-1.548329 -0.138314,-2.143225 -0.331478,-0.77054 -0.443323,-0.621782 3.22445,-4.2886502 l 3.305156,-3.3043412 0,-0.7419329 0,-0.7419329 -0.695677,0 -0.695677,0 L 12.550524,6.0003056 9.1873159,9.3565432 8.7758614,9.3164398 C 8.5495614,9.2943822 8.2118644,9.2158339 8.0254237,9.1418873 7.6358982,8.9873932 6.6052285,8.9603473 6.043371,9.0898763 4.3135875,9.4886559 2.9795152,11.185011 2.9843035,12.979669 c 0.00584,2.190406 1.701543,3.938277 3.9394253,4.060631 0.09322,0.0051 0.4173729,-0.03026 0.720339,-0.07858 z"
     id="path3339"
     inkscape:connector-curvature="0" /></svg>